<?xml version="1.0" encoding="utf-8"?>
<svg t="1729048454847" class="icon" viewBox="0 0 1024 1024" version="1.1" p-id="26828" width="128" height="128" xmlns="http://www.w3.org/2000/svg">
  <path d="M 919.68 616.32 C 940.16 616.32 956.8 632.96 956.8 653.44 C 956.8 673.92 940.16 690.56 919.68 690.56 L 193.92 690.56 L 353.92 849.28 C 368 863.36 368 887.68 353.92 901.76 C 339.84 915.84 315.52 915.84 301.44 901.76 L 78.72 679.04 C 72.32 672.64 68.48 662.4 68.48 652.16 C 68.48 650.88 69.76 648.32 69.76 647.04 C 69.76 644.48 69.76 640.64 71.04 638.08 C 76.16 624 90.24 615.04 105.6 615.04 L 919.68 615.04 L 919.68 616.32 Z M 945.28 344.96 C 951.68 351.36 955.52 361.6 955.52 371.84 C 955.52 373.12 954.24 375.68 954.24 376.96 C 954.24 379.52 954.24 383.36 952.96 385.92 C 947.84 400 933.76 408.96 918.4 408.96 L 104.32 408.96 C 83.84 408.96 67.2 392.32 67.2 371.84 C 67.2 351.36 83.84 334.72 104.32 334.72 L 830.08 334.72 L 670.08 174.72 C 656 160.64 656 136.32 670.08 122.24 C 684.16 108.16 708.48 108.16 722.56 122.24 L 945.28 344.96 Z M 945.28 344.96" p-id="26829" style="transform-box: fill-box; transform-origin: 50% 50%; fill: rgb(255, 255, 255);" transform="matrix(0, -1, 1, 0, 0, 0)"/>
</svg>