<?xml version="1.0" encoding="utf-8"?>
<svg viewBox="-66.609 -73.77 1140.5 1140.5" width="118.351px" height="112.375px" preserveAspectRatio="none" xmlns="http://www.w3.org/2000/svg" xmlns:bx="https://boxy-svg.com"><defs><bx:export><bx:file format="svg"/></bx:export></defs><path d="M 820.54 693.01 L 806.525 702.463 C 766.731 729.304 726.469 669.613 766.263 642.773 L 874.038 570.077 C 888.1 560.592 902.221 561.913 912.847 568.771 C 920.717 572.757 927.147 579.627 930.402 588.571 L 974.865 710.731 C 981.665 729.413 972.032 750.071 953.348 756.871 C 934.665 763.672 914.007 754.039 907.207 735.356 L 898.184 710.566 C 820.184 854.352 669.608 945.98 502.851 945.98 C 254.599 945.98 53.351 744.732 53.351 496.48 C 53.351 475.493 70.364 458.48 91.351 458.48 C 112.337 458.48 129.351 475.493 129.351 496.48 C 129.351 702.758 296.572 869.98 502.851 869.98 C 634.078 869.98 753.204 801.734 820.54 693.01 Z M 185.497 299.408 L 200.757 289.115 C 240.551 262.274 280.813 321.965 241.02 348.805 L 133.245 421.501 C 119.182 430.986 105.062 429.665 94.435 422.807 C 86.566 418.821 80.135 411.951 76.88 403.007 L 32.418 280.847 C 25.618 262.165 35.251 241.507 53.934 234.707 C 72.617 227.906 93.276 237.539 100.076 256.222 L 108.768 280.104 C 187.105 137.656 336.962 46.98 502.851 46.98 C 751.103 46.98 952.351 248.228 952.351 496.48 C 952.351 517.467 935.337 534.48 914.351 534.48 C 893.364 534.48 876.351 517.467 876.351 496.48 C 876.351 290.202 709.129 122.98 502.851 122.98 C 371.828 122.98 252.882 191.014 185.497 299.408 Z" p-id="32633" style="transform-origin: 503.641px 496.48px;" id="object-0"><animateTransform type="rotate" additive="sum" attributeName="transform" values="0;-180;-360" begin="0s" dur="2s" fill="freeze" keyTimes="0; 0.502995; 1" repeatCount="indefinite"/></path></svg>