<?xml version="1.0" encoding="utf-8"?>
<svg viewBox="39.0002 62 946.8086 899" width="118.351px" height="112.375px" preserveAspectRatio="none" xmlns="http://www.w3.org/2000/svg"><path d="M829.303 708.03l-14.015 9.453c-39.794 26.841-80.056-32.85-40.262-59.69l107.775-72.696c14.062-9.485 28.183-8.164 38.809-1.306 7.87 3.986 14.3 10.856 17.555 19.8l44.463 122.16c6.8 18.682-2.833 39.34-21.517 46.14-18.683 6.801-39.341-2.832-46.141-21.515l-9.023-24.79C828.947 869.372 678.371 961 511.614 961c-248.252 0-449.5-201.248-449.5-449.5 0-20.987 17.013-38 38-38 20.986 0 38 17.013 38 38 0 206.278 167.221 373.5 373.5 373.5 131.227 0 250.353-68.246 317.689-176.97zM194.26 314.428l15.26-10.293c39.794-26.841 80.056 32.85 40.263 59.69l-107.775 72.696c-14.063 9.485-28.183 8.164-38.81 1.306-7.869-3.986-14.3-10.856-17.555-19.8l-44.462-122.16c-6.8-18.682 2.833-39.34 21.516-46.14 18.683-6.801 39.342 2.832 46.142 21.515l8.692 23.882C195.868 152.676 345.725 62 511.614 62c248.252 0 449.5 201.248 449.5 449.5 0 20.987-17.014 38-38 38-20.987 0-38-17.013-38-38 0-206.278-167.222-373.5-373.5-373.5-131.023 0-249.969 68.034-317.354 176.428z" p-id="32633" style="fill: rgb(255, 255, 255); transform-origin: 512.404px 511.5px;" id="object-0"><animateTransform type="rotate" additive="sum" attributeName="transform" values="0;-180;-360" begin="0s" dur="2s" fill="freeze" keyTimes="0; 0.502995; 1" repeatCount="indefinite"/></path></svg>